<mxfile host="app.diagrams.net" agent="Mozilla/5.0 (Windows NT 10.0; Win64; x64) AppleWebKit/537.36 (KHTML, like Gecko) Chrome/136.0.0.0 Safari/537.36" version="27.1.4">
  <diagram name="Page-1" id="P-3NK9GpkaGhou-IZXN3">
    <mxGraphModel dx="1025" dy="464" grid="1" gridSize="10" guides="1" tooltips="1" connect="1" arrows="1" fold="1" page="1" pageScale="1" pageWidth="827" pageHeight="1169" math="0" shadow="0">
      <root>
        <mxCell id="0" />
        <mxCell id="1" parent="0" />
        <mxCell id="fk7sYwr-XkE_2V-9Roaf-38" value="&amp;lt;&amp;lt;View&amp;gt;&amp;gt;&lt;div&gt;:ProductWindow&lt;/div&gt;" style="shape=umlLifeline;perimeter=lifelinePerimeter;whiteSpace=wrap;html=1;container=0;dropTarget=0;collapsible=0;recursiveResize=0;outlineConnect=0;portConstraint=eastwest;newEdgeStyle={&quot;edgeStyle&quot;:&quot;elbowEdgeStyle&quot;,&quot;elbow&quot;:&quot;vertical&quot;,&quot;curved&quot;:0,&quot;rounded&quot;:0};" parent="1" vertex="1">
          <mxGeometry x="250" y="190" width="100" height="410" as="geometry" />
        </mxCell>
        <mxCell id="fk7sYwr-XkE_2V-9Roaf-39" value="" style="html=1;points=[];perimeter=orthogonalPerimeter;outlineConnect=0;targetShapes=umlLifeline;portConstraint=eastwest;newEdgeStyle={&quot;edgeStyle&quot;:&quot;elbowEdgeStyle&quot;,&quot;elbow&quot;:&quot;vertical&quot;,&quot;curved&quot;:0,&quot;rounded&quot;:0};" parent="fk7sYwr-XkE_2V-9Roaf-38" vertex="1">
          <mxGeometry x="45" y="80" width="10" height="180" as="geometry" />
        </mxCell>
        <mxCell id="fk7sYwr-XkE_2V-9Roaf-40" value="&amp;lt;&amp;lt;Controller&amp;gt;&amp;gt;&lt;div&gt;:ProductHandler&lt;/div&gt;" style="shape=umlLifeline;perimeter=lifelinePerimeter;whiteSpace=wrap;html=1;container=0;dropTarget=0;collapsible=0;recursiveResize=0;outlineConnect=0;portConstraint=eastwest;newEdgeStyle={&quot;edgeStyle&quot;:&quot;elbowEdgeStyle&quot;,&quot;elbow&quot;:&quot;vertical&quot;,&quot;curved&quot;:0,&quot;rounded&quot;:0};" parent="1" vertex="1">
          <mxGeometry x="450" y="190" width="100" height="410" as="geometry" />
        </mxCell>
        <mxCell id="fk7sYwr-XkE_2V-9Roaf-41" value="" style="html=1;points=[];perimeter=orthogonalPerimeter;outlineConnect=0;targetShapes=umlLifeline;portConstraint=eastwest;newEdgeStyle={&quot;edgeStyle&quot;:&quot;elbowEdgeStyle&quot;,&quot;elbow&quot;:&quot;vertical&quot;,&quot;curved&quot;:0,&quot;rounded&quot;:0};" parent="fk7sYwr-XkE_2V-9Roaf-40" vertex="1">
          <mxGeometry x="45" y="100" width="10" height="140" as="geometry" />
        </mxCell>
        <mxCell id="fk7sYwr-XkE_2V-9Roaf-42" value="Tạo sản phẩm mới" style="html=1;verticalAlign=bottom;endArrow=block;edgeStyle=elbowEdgeStyle;elbow=horizontal;curved=0;rounded=0;" parent="1" edge="1">
          <mxGeometry relative="1" as="geometry">
            <mxPoint x="305" y="300" as="sourcePoint" />
            <Array as="points">
              <mxPoint x="415" y="300" />
            </Array>
            <mxPoint x="495" y="300" as="targetPoint" />
            <mxPoint as="offset" />
          </mxGeometry>
        </mxCell>
        <mxCell id="fk7sYwr-XkE_2V-9Roaf-44" value="aC: Product" style="shape=umlLifeline;perimeter=lifelinePerimeter;whiteSpace=wrap;html=1;container=0;dropTarget=0;collapsible=0;recursiveResize=0;outlineConnect=0;portConstraint=eastwest;newEdgeStyle={&quot;edgeStyle&quot;:&quot;elbowEdgeStyle&quot;,&quot;elbow&quot;:&quot;vertical&quot;,&quot;curved&quot;:0,&quot;rounded&quot;:0};" parent="1" vertex="1">
          <mxGeometry x="640" y="190" width="100" height="410" as="geometry" />
        </mxCell>
        <mxCell id="fk7sYwr-XkE_2V-9Roaf-45" value="" style="html=1;points=[];perimeter=orthogonalPerimeter;outlineConnect=0;targetShapes=umlLifeline;portConstraint=eastwest;newEdgeStyle={&quot;edgeStyle&quot;:&quot;elbowEdgeStyle&quot;,&quot;elbow&quot;:&quot;vertical&quot;,&quot;curved&quot;:0,&quot;rounded&quot;:0};" parent="fk7sYwr-XkE_2V-9Roaf-44" vertex="1">
          <mxGeometry x="45" y="120" width="10" height="120" as="geometry" />
        </mxCell>
        <mxCell id="fk7sYwr-XkE_2V-9Roaf-46" value="&amp;lt;&amp;lt;Dam&amp;gt;&amp;gt;&lt;div&gt;:&lt;span style=&quot;background-color: transparent; color: light-dark(rgb(0, 0, 0), rgb(255, 255, 255));&quot;&gt;Product&lt;/span&gt;&lt;span style=&quot;background-color: transparent; color: light-dark(rgb(0, 0, 0), rgb(255, 255, 255));&quot;&gt;DAM&lt;/span&gt;&lt;/div&gt;" style="shape=umlLifeline;perimeter=lifelinePerimeter;whiteSpace=wrap;html=1;container=0;dropTarget=0;collapsible=0;recursiveResize=0;outlineConnect=0;portConstraint=eastwest;newEdgeStyle={&quot;edgeStyle&quot;:&quot;elbowEdgeStyle&quot;,&quot;elbow&quot;:&quot;vertical&quot;,&quot;curved&quot;:0,&quot;rounded&quot;:0};" parent="1" vertex="1">
          <mxGeometry x="830" y="190" width="100" height="410" as="geometry" />
        </mxCell>
        <mxCell id="fk7sYwr-XkE_2V-9Roaf-47" value="" style="html=1;points=[];perimeter=orthogonalPerimeter;outlineConnect=0;targetShapes=umlLifeline;portConstraint=eastwest;newEdgeStyle={&quot;edgeStyle&quot;:&quot;elbowEdgeStyle&quot;,&quot;elbow&quot;:&quot;vertical&quot;,&quot;curved&quot;:0,&quot;rounded&quot;:0};" parent="fk7sYwr-XkE_2V-9Roaf-46" vertex="1">
          <mxGeometry x="45" y="130" width="10" height="100" as="geometry" />
        </mxCell>
        <mxCell id="fk7sYwr-XkE_2V-9Roaf-48" value="Database" style="shape=umlLifeline;perimeter=lifelinePerimeter;whiteSpace=wrap;html=1;container=0;dropTarget=0;collapsible=0;recursiveResize=0;outlineConnect=0;portConstraint=eastwest;newEdgeStyle={&quot;edgeStyle&quot;:&quot;elbowEdgeStyle&quot;,&quot;elbow&quot;:&quot;vertical&quot;,&quot;curved&quot;:0,&quot;rounded&quot;:0};" parent="1" vertex="1">
          <mxGeometry x="1000" y="190" width="100" height="410" as="geometry" />
        </mxCell>
        <mxCell id="fk7sYwr-XkE_2V-9Roaf-49" value="" style="html=1;points=[];perimeter=orthogonalPerimeter;outlineConnect=0;targetShapes=umlLifeline;portConstraint=eastwest;newEdgeStyle={&quot;edgeStyle&quot;:&quot;elbowEdgeStyle&quot;,&quot;elbow&quot;:&quot;vertical&quot;,&quot;curved&quot;:0,&quot;rounded&quot;:0};" parent="fk7sYwr-XkE_2V-9Roaf-48" vertex="1">
          <mxGeometry x="45" y="140" width="10" height="80" as="geometry" />
        </mxCell>
        <mxCell id="fk7sYwr-XkE_2V-9Roaf-50" value="ac = Product&lt;div&gt;(id, tên, tác giả, số lượng,&lt;/div&gt;&lt;div&gt;&amp;nbsp;giá tiền, NXB)&lt;/div&gt;" style="html=1;verticalAlign=bottom;endArrow=block;edgeStyle=elbowEdgeStyle;elbow=vertical;curved=0;rounded=0;" parent="1" edge="1">
          <mxGeometry relative="1" as="geometry">
            <mxPoint x="505" y="320" as="sourcePoint" />
            <Array as="points">
              <mxPoint x="600" y="320" />
            </Array>
            <mxPoint x="685" y="320" as="targetPoint" />
            <mxPoint as="offset" />
          </mxGeometry>
        </mxCell>
        <mxCell id="fk7sYwr-XkE_2V-9Roaf-51" value="writeDB(ac)" style="html=1;verticalAlign=bottom;endArrow=block;edgeStyle=elbowEdgeStyle;elbow=vertical;curved=0;rounded=0;" parent="1" source="fk7sYwr-XkE_2V-9Roaf-45" target="fk7sYwr-XkE_2V-9Roaf-47" edge="1">
          <mxGeometry relative="1" as="geometry">
            <mxPoint x="700" y="339.5" as="sourcePoint" />
            <Array as="points">
              <mxPoint x="790" y="339.5" />
            </Array>
            <mxPoint x="890" y="340" as="targetPoint" />
            <mxPoint as="offset" />
          </mxGeometry>
        </mxCell>
        <mxCell id="fk7sYwr-XkE_2V-9Roaf-52" value="Ghi thông tin ac trong csdl" style="html=1;verticalAlign=bottom;endArrow=block;edgeStyle=elbowEdgeStyle;elbow=vertical;curved=0;rounded=0;" parent="1" source="fk7sYwr-XkE_2V-9Roaf-47" target="fk7sYwr-XkE_2V-9Roaf-49" edge="1">
          <mxGeometry relative="1" as="geometry">
            <mxPoint x="890" y="350" as="sourcePoint" />
            <Array as="points">
              <mxPoint x="980" y="350" />
            </Array>
            <mxPoint x="1020" y="350" as="targetPoint" />
            <mxPoint as="offset" />
          </mxGeometry>
        </mxCell>
        <mxCell id="fk7sYwr-XkE_2V-9Roaf-53" value="Admin" style="shape=umlActor;verticalLabelPosition=bottom;verticalAlign=top;html=1;outlineConnect=0;" parent="1" vertex="1">
          <mxGeometry x="110" y="150" width="30" height="60" as="geometry" />
        </mxCell>
        <mxCell id="fk7sYwr-XkE_2V-9Roaf-54" value="" style="endArrow=none;dashed=1;html=1;rounded=0;" parent="1" target="fk7sYwr-XkE_2V-9Roaf-53" edge="1">
          <mxGeometry width="50" height="50" relative="1" as="geometry">
            <mxPoint x="125" y="590" as="sourcePoint" />
            <mxPoint x="470" y="470" as="targetPoint" />
          </mxGeometry>
        </mxCell>
        <mxCell id="fk7sYwr-XkE_2V-9Roaf-55" value="" style="html=1;points=[];perimeter=orthogonalPerimeter;outlineConnect=0;targetShapes=umlLifeline;portConstraint=eastwest;newEdgeStyle={&quot;edgeStyle&quot;:&quot;elbowEdgeStyle&quot;,&quot;elbow&quot;:&quot;vertical&quot;,&quot;curved&quot;:0,&quot;rounded&quot;:0};" parent="1" vertex="1">
          <mxGeometry x="120" y="260" width="10" height="200" as="geometry" />
        </mxCell>
        <mxCell id="fk7sYwr-XkE_2V-9Roaf-56" value="Thêm sách mới" style="html=1;verticalAlign=bottom;endArrow=block;edgeStyle=elbowEdgeStyle;elbow=vertical;curved=0;rounded=0;" parent="1" edge="1">
          <mxGeometry relative="1" as="geometry">
            <mxPoint x="130" y="280" as="sourcePoint" />
            <Array as="points">
              <mxPoint x="225" y="280" />
            </Array>
            <mxPoint x="295" y="280" as="targetPoint" />
            <mxPoint as="offset" />
          </mxGeometry>
        </mxCell>
      </root>
    </mxGraphModel>
  </diagram>
</mxfile>
